<svg xmlns="http://www.w3.org/2000/svg" viewBox="0 0 700 700" width="250" height="250" style="enable-background:new 0 0 700 700" xml:space="preserve">
  <path fill="currentColor" d="M380.4 21.6c-7.1 3.8-13.6 9.6-21 18.8-7.9 9.8-18.4 27-22.9 37.4-11.7 27.1-14.3 68.1-7.5 117.7 3.1 22.1 3.7 24.5 6.4 24.5 2.4 0 10.2 7.4 12.6 12.1 2 3.6 21.1 23.9 22.6 23.9.8 0 2.1-1.1 3-2.5 1.6-2.4 1.5-2.6-2.4-7.2-2.2-2.7-7.2-7.9-11-11.7-5.8-5.6-7.3-6.7-9.2-6.1-1.7.5-3.1-.1-6.2-3.1-5.9-5.8-6.4-7.1-3.7-10 1.2-1.3 2.8-2.4 3.5-2.4s8.5 7.5 17.3 16.7c8.8 9.1 16.3 16.4 16.7 16.1.3-.3-6.7-8.1-15.5-17.3-13.4-13.8-16-17-15.5-18.9.3-1.2-.3-7.6-1.3-14.2-2.5-17.3-2.5-59.4 0-71.4 2.5-11.6 5.1-19 9.9-28.8 5.4-10.8 11.9-18.6 19.2-23.1 5-3 6.8-3.6 11.7-3.6 5.3 0 6.1.3 9.4 3.5 2 1.9 4.4 3.4 5.3 3.3.9-.2 2.5.4 3.5 1.1 1.7 1.3 1.8 1.6.2 3.9-1.6 2.5-1.5 2.6.9 4.2 1.7 1.1 3.5 1.5 5.2 1.1 2.5-.7 5.4.7 5.4 2.5 0 .4-2.4 1.6-5.2 2.7l-5.3 2 .3 8.8c.7 19.3-7.3 45-20.6 66.7-2.3 3.7-4.2 7.2-4.2 7.7 0 .6 2 2.4 4.4 4.2 2.5 1.7 4.7 4 5 5.2.5 1.7 19.1 15.6 21 15.6.7 0 3.6-5.5 3.6-6.8 0-1.7-19-13.2-21.8-13.2-2.8 0-10.2-4.3-10.2-5.9 0-.5.8-1.9 1.9-3.2 1.7-2.1 2.2-2.2 4.5-1.1 1.5.6 5 2.9 7.9 5.1 5 3.7 19 12.1 20.1 12.1.7 0 3.6-5.6 3.6-6.9 0-.6-4.5-3.3-10-6.1-8.6-4.3-10.3-4.8-12-3.8-1.6 1-2.7.9-6.5-1l-4.6-2.2 1.6-3c.9-1.7 2.4-3 3.4-3s7.6 2.7 14.7 6c7 3.3 13.2 5.9 13.8 5.6.6-.2-5.3-3.5-13.1-7.2-9.4-4.5-14.3-7.3-14.3-8.4.1-2.2 2.5-5 4.3-5 2.9 0 6.7 2.3 6.7 4 0 1 .6 2.2 1.3 2.7 2.8 2.2 16.8 7.5 18.2 7 .9-.4 1.5-1.9 1.5-4.1 0-3.2-.3-3.6-4.7-5.2-2.7-.9-6.3-2.3-8.2-3.1-1.8-.7-4.6-1.3-6.2-1.3-6.7 0-9.9-4.1-6.3-8.1 1.7-1.9 5.1-1.4 9.5 1.4 3 1.9 15.8 5.9 16.9 5.2 1.4-.9 2.1-5.7 1-7-.6-.8-4.5-2.2-8.7-3.1-7-1.7-7.5-1.7-8.4-.1-1.1 1.9-2.7 2.1-6.3.7-2.3-.8-2.4-1.2-1.5-4 .6-1.6 1.5-3.2 2-3.5.5-.3 5.9.4 12 1.5 6.1 1.2 11.6 1.7 12 1.3.5-.5 1.3-7.4 1.9-15.4 2.8-39.5-6.5-72-26.6-92.6-10.5-10.7-16.1-12.5-25-7.7zm39.4 71.6c.2 1.2-.6 2-3 2.6-2.3.6-3.4 1.5-3.8 3.3-.8 3.5-3.3 3-4.1-.8-.7-3.6-.1-4.4 4.6-6.1 3.9-1.4 5.9-1.1 6.3 1zM425 105c1.2 2.2 1 2.4-4.9 3.4-1.9.4-4.3 1.3-5.2 2.2-2.7 2.4-4.9 1.1-4.9-3 0-3.4.1-3.5 4.8-3.9 2.6-.2 5.7-.4 6.9-.5 1.3-.1 2.7.6 3.3 1.8zm-8.6 10.5c1.1.8 4.1 1.5 6.7 1.5 3 0 4.9.5 5.2 1.3 1.2 3.1-.9 3.8-9.9 3.5-8.5-.3-8.9-.4-9.2-2.6-.2-1.3-.1-3 .2-3.8.7-1.8 4.5-1.8 7 .1zm-1.8 10.9c.5 2 1.4 2.6 4.7 3.1 9.3 1.4 9.7 1.5 9.7 4.1 0 1.3-.4 2.4-.9 2.4-1.6 0-20.5-4-20.9-4.5-.2-.2-.1-2 .2-4 .6-3.1 1.1-3.5 3.6-3.5 2.3 0 3.1.5 3.6 2.4z"/>
  <path fill="currentColor" d="M376 184.4c0 .3 2 1.9 4.5 3.7 3.9 2.8 4.5 3.7 4 5.9s.5 3.4 9 10.3c5.2 4.3 10.1 8 10.8 8.3 1.7.6 5.1-4.2 4.3-6.1-.5-1.5-19-15.5-20.4-15.5-.5 0-3.1-1.6-5.8-3.5-4.5-3.3-6.4-4.1-6.4-3.1zM369 191.4c0 .9 31.3 27.7 31.7 27.2.9-.9-.7-2.5-15.2-15.1-12.6-10.9-16.5-13.8-16.5-12.1zM366.1 203.1c10.2 11.6 25.4 26.9 26.7 26.7.7-.2 2.1-1.6 3-3.1l1.7-2.8-10-9.4c-9-8.5-10.3-9.4-13-9-2.6.4-3.7-.1-7-3.5-5.6-5.7-6.6-5-1.4 1.1zM354 204.5c0 .4 2 3.1 4.4 6 3.4 3.9 4.3 5.7 3.9 7.4-.5 1.9 1.2 4.1 9.8 12.7 5.7 5.7 10.9 10.4 11.6 10.4.7 0 2-1.2 3-2.6l1.7-2.6-11.2-10.7C362.4 211 354 203.5 354 204.5zM329 225.4c0 .5 2.3 3.4 5 6.6 2.8 3.2 5 6.8 5 8 0 1.5 3.8 6.3 11.1 14.2l11.2 11.9 2.4-2.3c1.3-1.2 2.2-2.8 2.1-3.4-.5-2.3-22-24.4-23.6-24.4-.9 0-4.2-2.6-7.4-5.7-3.2-3.2-5.8-5.4-5.8-4.9zM320 231.7c0 .5 2.5 3.8 5.6 7.2 5.1 5.6 5.6 6.5 4.6 8.6-1 2.2-.3 3.3 8.5 13.2 5.2 5.9 10.3 11.6 11.1 12.6 1.4 1.5 1.4 2 .1 3.2-.8.8-1.9 1.1-2.5.7-.5-.4-8.1-8.8-16.8-18.7-20.2-22.9-18.6-21.3-18.6-19.5 0 .8 7.7 10 17 20.5 9.4 10.4 16.9 19.7 16.8 20.5-.7 3.7-3.9 1.4-14.3-10.4-9.6-10.9-11.3-12.4-13.4-11.9-2 .5-3.4-.5-8.7-6.3-3.5-3.8-6.3-6.3-6.4-5.6 0 .7 2 3.4 4.4 6 2.4 2.6 5.6 6.7 7.1 9.1 1.5 2.5 7.3 9.6 12.9 15.9 8.9 10 10.4 11.3 12.9 10.9 1.5-.2 2.7-.3 2.7-.2 0 .1 2 13.6 4.5 29.9 2.5 16.4 4.5 30.2 4.5 30.6 0 .5-4.2 2.9-9.4 5.5-11.4 5.6-21 13.9-27.7 24.2-6 9.3-8.9 17.6-9.6 28.3-.5 7.2-.1 10 2 18.2 1.5 5.3 4.1 12.6 5.8 16.3 3.5 7.1 10.6 14.5 13.9 14.5 2.6 0 2.5-.4-.4-4.3-6.1-8.2-7.1-11.4-7.1-23.7 0-10.6.2-12 2.9-17.8 4-8.6 13.2-17.2 24.3-22.4 4.5-2.2 8.9-3.8 9.6-3.5.9.3 1.9 5 3 13.8 3.3 25.8 10.7 80.5 12.3 90.8.9 5.7 1.7 14.3 1.9 19 .3 9.8 3.2 28 4.7 29.8.6.7 1.4 1.1 1.8.8 1.3-.8 2.7 1.8 3.8 7 1 4.7.9 5.1-1.4 7.3-1.5 1.4-2.3 3-2 4 .3.9 1.7 8.4 3.2 16.7 2.2 12.3 2.7 18.2 2.8 33 .1 19.7-.9 25.6-5.9 34-6.4 10.9-21.9 24.1-33 28-7.7 2.7-24.9 2.6-34-.2-8.3-2.6-14.5-6.6-14.5-9.3 0-1.4 2.9-3.4 11.1-7.7 19.6-10.2 25.1-17.3 25.1-32.4 0-10-3.2-21.8-7.8-28.7-7.7-11.6-23.1-16.8-37.5-12.6-20.1 5.9-31.4 25.1-28.1 47.9 1.5 9.9 5.9 23.6 9.8 30.3 6.4 10.8 19.3 19.8 34.4 23.9 8.9 2.4 33.5 2.4 43.4 0 24.2-6 44.3-25.8 51.3-50.7 2.5-9 2.5-45.4-.1-65.3-.9-7.5-1.4-14.2-1.1-14.7.4-.6-.3-4-1.6-7.7-2-6.1-2-6.7-.5-7.8 2.2-1.7 2.1-2.3-2-12.3-2.5-6-3.7-10.5-3.9-14.7-.2-4.5-14.4-100.2-18-121.3l-.6-3.2h5.4c11.2 0 24 5.8 34.5 15.5 7.9 7.3 12.9 14.9 16.6 25.5 3 8.2 3.1 9 3.1 26 0 14.2-.4 18.6-1.8 23.5-2.4 7.7-5.1 13-9.3 18.2-1.9 2.3-3.4 4.5-3.4 5 0 .9 11.2 12.1 17.8 17.9 5.1 4.4 6.9 3.7 2.4-.9-2.7-2.7-3.1-3.9-2.6-6.4.5-2.7 0-3.5-5-7.9-5.4-4.8-6.6-6.7-4.7-7.9.5-.3 5.7 3.5 11.6 8.5 5.8 4.9 11.2 9 11.8 9 1.2-.1-5.3-6.2-15-14.2-8.8-7.3-5.9-9.7 3.3-2.8 5.6 4.2 7.3 4.7 9.1 2.9.9-.9 2-.6 4.3 1.1 1.7 1.2 3.4 1.9 3.8 1.5.4-.3-.1-1.1-1.2-1.7-1-.5-2.8-2.1-3.9-3.5-1.2-1.4-4.5-4.3-7.4-6.4-3.5-2.6-5-4.4-4.7-5.4.8-2.1 2.7-1.9 8.4 1 2.7 1.4 5.6 2.5 6.5 2.5s2.9.7 4.5 1.5c1.7.9 3 1.2 3 .7s-1.1-1.5-2.5-2.2c-1.7-.9-2.5-2.2-2.5-4 0-2.2-.8-3.1-5-5-2.7-1.3-5-2.7-5-3.2 0-2.1 3.6-1.9 9.8.5 10.2 4 10.2 4 10.2 2.9 0-.5-3.6-2.4-8-4.2-4.6-1.9-8-3.8-8-4.6 0-1.7 3.7-1.8 7.6-.4 2.3.9 3.1.7 5-1.1 1.2-1.1 2.7-1.8 3.3-1.5.5.4 1.2.3 1.5-.2.6-1-7.6-5.2-10-5.2-.9 0-1.4-.7-1.2-1.8.2-1.2 1.5-1.8 4.2-2 2.1-.2 4.9-1 6.2-1.9l2.4-1.5-2.3-1.8c-1.2-1-3.1-1.9-4.2-2.1-3.3-.7-2.3-3.2 2.1-5.4 4.2-2 4.2-2 2.6-4.5-.9-1.4-2.2-2.8-2.8-3.2-.8-.6-.9-2.1-.2-5.5 1.9-9.9-1.1-23.1-8.7-38.3-7.6-15.1-19.3-26.8-34-34.1-11.9-5.8-21.5-8-37.9-8.5-7.7-.2-14.1-.5-14.2-.7-.2-.2-2.6-15.6-5.4-34.3-2.8-18.6-5.3-35.6-5.6-37.7-.4-2.8-2.3-5.6-7.1-11-9.5-10.4-30.3-31-30.3-30zm67.5 288.4c2 6 4.7 12.9 6 15.2 1.3 2.3 2.6 5.8 3 7.8.6 3.4.5 3.6-3.6 5.2-2.3.9-4.5 1.4-4.9 1.2-1.2-.7-3-9-3-13.7 0-2.4-1.1-8.6-2.5-13.8-3-11.6-3.1-13-.6-13 1.6 0 2.6 2.1 5.6 11.1z"/>
  <path fill="currentColor" d="M294 252.7c0 .5 2.7 3.9 6 7.6 5.1 5.8 5.8 7.1 5 8.8-1.2 2.1-1.5 1.7 14.5 19.7 4.4 5 8.7 9.1 9.6 9.1.9.1 2.4-.8 3.4-1.9 2.1-2.3 3.1-.9-11.8-17.7-6-6.7-11.6-12.5-12.5-12.8-1-.3-4.2-3.4-7.2-7-5-6-7-7.6-7-5.8zM286.6 262.2c11.1 12.5 36.9 39.8 37.6 39.8.5 0-1.4-2.7-4.4-5.9-25.3-28.3-32.5-35.9-33.7-36-1.1-.1-.9.5.5 2.1zM276.8 267.6c-.8.7 1.4 3.2 25.9 29.7l13.6 14.8 2.5-2.5 2.5-2.5-2.6-3.3c-1.5-1.8-7.3-8.2-13-14.2-9.5-9.9-10.5-10.8-12.5-9.7-1.9 1-2.8.5-8.9-6-3.8-3.9-7.1-6.7-7.5-6.3zM268 275.6c0 .5 2.9 3.9 6.5 7.4 4.2 4.1 6.5 7.3 6.5 8.7 0 2.6 25.2 27.8 27.7 27.8.9 0 2.2-1 3.1-2.3 1.4-2.2 1.1-2.6-11.9-15.8-10.1-10.2-13.9-13.4-15.3-13-1.4.4-4-1.5-9.3-6.6-4-3.9-7.3-6.7-7.3-6.2zM259.6 285.2c.3.7 3.4 3.8 6.9 6.8 5.6 4.8 6.4 5.9 6.2 8.7-.2 3 .9 4.2 13.8 15.7 14.4 12.7 16.1 13.6 18 8.9.5-1.4-2-4.3-11.2-13.1-6.5-6.2-13.6-12.5-15.8-14-2.2-1.5-6.9-5.3-10.4-8.4-6.2-5.6-8.6-7.1-7.5-4.6zM252.1 294.6c1.8 2.2 44.2 38 44.6 37.6 1-.8-1.6-3.1-21.9-20.3-20.1-17.1-26.6-22-22.7-17.3zM243 302.8c0 .6 3.4 3.6 7.5 6.7s7.9 6.4 8.5 7.4c.5 1 7.7 6.9 16.1 13.1 12.2 9.2 15.4 11.2 16.7 10.3 3.8-2.3 1.9-4.9-11.8-15.8-7.4-6-14-11.2-14.7-11.7-.7-.6-1.9-.4-3.2.3-1.7 1.2-2.6.8-7.8-3.2-7.8-6.2-11.3-8.3-11.3-7.1zM235.6 313.9c.5.4 4.4 3.2 8.7 6 6.8 4.6 7.6 5.5 7.1 7.6-.5 2.2.6 3.2 12.3 10.7 20.4 13.3 20.1 13.2 21.8 11.8 3.3-2.8 1.5-4.8-13.9-15.4-8.5-5.8-16-10.6-16.8-10.6-.7 0-5-2.5-9.5-5.5-4.6-3-8.8-5.5-9.5-5.5s-.8.3-.2.9zM228 323.9c0 .5 9.6 6.5 21.3 13.4 29.2 17.1 32.7 19 32.7 17.9 0-.9-51.9-32.2-53.4-32.2-.3 0-.6.4-.6.9zM222.5 336c.3.5 3.4 2.2 6.8 3.7s8.1 4.2 10.4 6c2.3 1.8 11.8 6.9 21 11.3 15.4 7.4 16.9 7.9 18 6.3.7-.9 1.3-2.2 1.3-2.8 0-1.1-11.4-7.8-27.7-16.2-6.6-3.5-7.3-3.6-9.8-2.3-2.4 1.3-3.2 1.1-11.1-2.8-8.9-4.4-9.9-4.8-8.9-3.2zM216 347.7c0 .5 4.1 2.4 9.2 4.4 7.9 3 9.8 4.4 11.5 7.7 0 .2 8.4 3.5 18.5 7.3 16.8 6.4 18.4 6.8 19.6 5.2 2.5-3.4 2.4-3.5-17.8-12.3-12.2-5.3-17.2-7-19.3-6.6-1.9.4-5.6-.6-11.4-2.9-9.1-3.7-10.3-4-10.3-2.8zM211.6 360.9c.5.5 5 2 9.9 3.4 8.3 2.2 9 2.6 9.3 5.1.4 3.4 1 3.7 20.9 8.6 19.6 4.8 20.5 4.9 20.1 1.4-.3-2.5-1.3-3-16.8-8.1-9.1-3-18.5-5.5-21-5.7-2.5-.2-8.2-1.5-12.8-3-8.9-2.8-11.2-3.2-9.6-1.7zM208 373.9c0 .6.1 1.1.3 1.1s13.7 2.7 30.2 6c26.1 5.2 32.2 6.2 30.4 4.6-.2-.2-13.2-2.9-28.9-6-15.7-3.2-29.3-6-30.2-6.2-1-.3-1.8-.1-1.8.5zM226.7 393.1c-.5 2-1 2.1-9.4 1.4-4.8-.4-9.5-.9-10.5-1.1-.9-.3-1.9 0-2.3.5-.7 1.3 1.7 1.8 12 2.7 4.4.3 8.8 1 9.7 1.5 1.9 1 29.3 3.9 37.1 3.9 3.4 0 4.9-.4 5.4-1.6 1.2-3.1-2.2-4.3-20.1-6.8-21.5-3.1-21.2-3.1-21.9-.5zM216 406.7c-14.3.5-15.6 2.3-1.7 2.3 10.5 0 10.8 0 11.7 2.5l1 2.5 13.2-.1c7.3-.1 16.5-.4 20.3-.8 6.6-.6 7-.7 7-3.1 0-2.2-.5-2.6-4.5-3.2-4.5-.6-26.8-.7-47-.1zM230.3 418.9c-26.7 1.8-34.7 3.7-10.8 2.7 17.8-.9 48.6-3.4 49.3-4.1.8-.8-12.6-.3-38.5 1.4zM243.8 424c-16.1 2.1-16.8 2.3-16.8 4.9 0 2.2-.1 2.3-12 4.3-4.1.6-6.5 1.4-5.2 1.6 1.2.2 5.3-.1 9.1-.7s8.2-.9 9.8-.6c1.5.3 11.1-1 21.3-2.8l18.5-3.2.3-2.8c.3-2.7.3-2.7-5.5-2.6-3.2.1-12 .9-19.5 1.9zM249.6 435.1c-13.1 2.8-18.6 4.5-20.2 6-1.3 1.2-5.5 2.8-10.4 3.9-4.5 1-8.4 2.1-8.7 2.4-1.1 1.1 3.5.6 11.3-1.1 6-1.3 8-1.4 9.5-.5 1.6 1 4.8.6 17.2-2.3 23.4-5.5 22.7-5.3 22.7-7.8 0-2.2-1.7-4.8-2.9-4.6-.4.1-8.7 1.9-18.5 4zM253 446.9c-9.6 2.6-18.9 5.5-20.6 6.4-1.6.8-6.5 2.5-10.8 3.5-4.3 1.1-8 2.3-8.4 2.6-1.1 1.2 3.2.6 11-1.6l7.8-2.1 2 2.1c1.9 2 2.2 2 7.2.6 19.9-5.8 31.3-9.5 32.1-10.3 1.1-1.1-.6-6.2-2-6-.5.1-8.7 2.2-18.3 4.8zM267.5 454.7c-2.2.8-14.3 4.8-26.9 8.9-12.6 4-23.1 7.6-23.4 7.9-2.2 2.1 4.1.4 28.4-8 15.3-5.3 28-9.8 28.3-10 .9-1-2.5-.3-6.4 1.2zM258 463.9c-18.7 7.6-19.3 7.8-18.7 9.5.9 2.2-.7 3.4-8.3 6.7-7.7 3.2-9.8 4.5-8.8 5.4.3.3 4.2-1 8.7-3 4.6-1.9 9.1-3.5 10.1-3.5s9.8-3.7 19.5-8.2c16.6-7.7 17.6-8.3 17.3-10.7-.2-1.4-1-2.7-1.8-2.8-.8 0-8.9 2.9-18 6.6zM263.5 475.2c-8.8 5-16.9 10-18 11.2-1.1 1.2-5.5 4.1-9.7 6.4-4.3 2.3-7.8 4.7-7.8 5.2 0 1.8 1.8 1.1 9.3-3.5 8.1-4.9 8.8-5.1 11.6-3.3 1.6.9 4-.4 17.1-9.3 8.4-5.7 15.5-11 15.8-11.7.2-.8-.2-2-.9-2.7-1.2-1.2-3.9 0-17.4 7.7zM278.8 476.8c-1.8 1.6-11.7 9.5-22 17.6C239.5 508 236.3 511 239 511c1 0 42.5-34.3 43.5-36 1.1-1.8-.4-1-3.7 1.8zM272.2 489c-12.5 12.2-13.3 13.2-12.7 16 .6 2.7 0 3.7-5.1 9-3.1 3.3-5.4 6.3-5 6.7.4.4 3.5-2.3 6.9-6 3.5-3.7 6.8-6.7 7.4-6.7.5 0 6.7-6.3 13.7-14.1 12.3-13.6 12.7-14.1 11-16-.9-1-2-1.9-2.3-1.9s-6.6 5.9-13.9 13zM280.3 497c-7.9 9.7-11.3 14.7-11.3 16.5 0 1.6-2 5.2-5.1 9.3-3 3.9-4.5 6.8-3.8 7.1.6.2 1.4-.1 1.8-.6 4.2-6.3 10.4-13.1 11.8-12.9 2.2.1 22.4-28.1 22.1-30.9-.2-1.1-1.2-2.1-2.3-2.2-1.5-.2-4.9 3.3-13.2 13.7zM295.6 494.2c-9.2 14.5-15.6 25.3-15.6 26.6 0 .8-2 4.8-4.5 8.8-2.4 4-4 7.6-3.6 7.9.5.3 2.4-2.1 4.1-5.2 4.4-8 5.8-9.4 8.5-8.7 2.4.6 2.2.9 17.6-28.5 1.4-2.6 1.6-3.8.7-4.8-1.9-2.4-3.8-1.4-7.2 3.9zM303.1 500.5c-1.7 3.9-6.9 15.1-11.5 25-7.3 15.8-9.4 21.7-6.6 18.8 1.5-1.4 22-48.7 21.7-49.7-.2-.6-1.8 2.1-3.6 5.9zM304.3 512.2c-5.4 14.2-6 16.5-4.7 17.9 1.9 2.2 1.8 3.8-1 11.4-1.4 3.5-2.1 6.7-1.6 7 1.1.7 1.3.3 4-8 1.3-3.9 3.2-8.1 4.2-9.5 1-1.4 4.1-9.3 6.8-17.5 5.1-15.6 5.2-17.5.6-17.5-1.8 0-3 2.2-8.3 16.2zM410.2 498.2c-.7.7-1.2 1.6-1.2 2.1 0 2.1 12.4 17.7 14 17.7 1 0 3.2 1.7 4.9 3.7 3.9 4.7 5.3 3.6 1.6-1.2-1.5-2-2.8-4.9-2.9-6.4-.2-3.3-11.2-17.1-13.6-17.1-.9 0-2.1.5-2.8 1.2zM321 502.2c-2.1 5.1-9 30.9-8.5 31.8.3.6-.3 4.3-1.4 8.3-2.5 8.6-2.7 12.8-.6 8.2.8-1.7 2.2-5.6 3-8.8 1.3-4.3 2.1-5.7 3.5-5.7 1 0 2.2-.5 2.6-1.2s2.4-8.1 4.5-16.6c3.2-13.3 3.5-15.5 2.2-16.8-2.1-2.1-4.2-1.7-5.3.8zM400.1 503.4c-1 1.1-.1 3.4 4.1 11.3 4.9 8.8 5.7 9.8 8.1 9.6 2.1-.1 3.1.7 5.4 4.3 1.5 2.4 3.2 4.4 3.6 4.4.5 0 .7-.3.5-.8-3.2-7.2-9-18.1-12.4-23.5-4.4-6.8-6.9-8.2-9.3-5.3zM336.5 506.2c-.2.7-1.5 7.9-2.8 15.9l-2.3 14.7 2.1 1.9c2 1.7 2.1 2.3 1.2 9.6-.8 6.9-.6 9.9.7 8.6.3-.2.9-4.2 1.5-8.7.6-4.5 1.5-9 2-10 1.2-2.2 4.4-30.9 3.6-32.2-.9-1.4-5.5-1.2-6 .2zM394 505.9c0 1.2 15 33.3 16.1 34.5 2.9 3.2.9-2.3-6.5-17.8-7.7-16-9.6-19.3-9.6-16.7zM331.1 506.2c-.1.4-2.4 11.3-5.1 24.4-4.7 22-5.2 26.2-3.2 23.8 1.2-1.3 9.5-46.1 8.9-47.6-.3-.7-.6-1-.6-.6zM346.6 511.2c-1.5 11-1.9 26.8-.6 28.3.8 1 1.1 4 .9 9.1-.3 5.6 0 7.8.9 8.1.9.4 1.2-1.5 1.2-7 0-6 .4-7.8 2-9.7 1.8-2.1 2-3.7 2-17.7V507h-2.9c-2.6 0-2.9.4-3.5 4.2zM357.5 508.9c-.8 1.4 1.6 45.5 2.6 46.5.5.6.9-2 .9-6.4 0-6.7.2-7.6 2.5-9.5l2.5-2-1-13.9c-.6-7.7-1.3-14.3-1.6-14.8-.7-1.1-5.1-1-5.9.1zM368 512c0 5.7 4.3 40.6 5.1 41.4.5.6.9-.2.9-2 0-5.7-4.3-39.9-5.1-40.9-.5-.5-.9.1-.9 1.5z"/>
</svg>