<?xml version="1.0" standalone="no"?>
<!DOCTYPE svg PUBLIC "-//W3C//DTD SVG 20010904//EN"
 "http://www.w3.org/TR/2001/REC-SVG-20010904/DTD/svg10.dtd">
<svg version="1.0" xmlns="http://www.w3.org/2000/svg"
 width="700.000000pt" height="700.000000pt" viewBox="0 0 700.000000 700.000000"
 preserveAspectRatio="xMidYMid meet">
<metadata>
Created by potrace 1.14, written by Peter Selinger 2001-2017
</metadata>
<g transform="translate(0.000000,700.000000) scale(0.100000,-0.100000)"
fill="#000000" stroke="none">
<path d="M3804 6784 c-71 -38 -136 -96 -210 -188 -79 -98 -184 -270 -229 -374
-117 -271 -143 -681 -75 -1177 31 -221 37 -245 64 -245 24 0 102 -74 126 -121
20 -36 211 -239 226 -239 8 0 21 11 30 25 16 24 15 26 -24 72 -22 27 -72 79
-110 117 -58 56 -73 67 -92 61 -17 -5 -31 1 -62 31 -59 58 -64 71 -37 100 12
13 28 24 35 24 7 0 85 -75 173 -167 88 -91 163 -164 167 -161 3 3 -67 81 -155
173 -134 138 -160 170 -155 189 3 12 -3 76 -13 142 -25 173 -25 594 0 714 25
116 51 190 99 288 54 108 119 186 192 231 50 30 68 36 117 36 53 0 61 -3 94
-35 20 -19 44 -34 53 -33 9 2 25 -4 35 -11 17 -13 18 -16 2 -39 -16 -25 -15
-26 9 -42 17 -11 35 -15 52 -11 25 7 54 -7 54 -25 0 -4 -24 -16 -52 -27 l-53
-20 3 -88 c7 -193 -73 -450 -206 -667 -23 -37 -42 -72 -42 -77 0 -6 20 -24 44
-42 25 -17 47 -40 50 -52 5 -17 191 -156 210 -156 7 0 36 55 36 68 0 17 -190
132 -218 132 -28 0 -102 43 -102 59 0 5 8 19 19 32 17 21 22 22 45 11 15 -6
50 -29 79 -51 50 -37 190 -121 201 -121 7 0 36 56 36 69 0 6 -45 33 -100 61
-86 43 -103 48 -120 38 -16 -10 -27 -9 -65 10 l-46 22 16 30 c9 17 24 30 34
30 10 0 76 -27 147 -60 70 -33 132 -59 138 -56 6 2 -53 35 -131 72 -94 45
-143 73 -143 84 1 22 25 50 43 50 29 0 67 -23 67 -40 0 -10 6 -22 13 -27 28
-22 168 -75 182 -70 9 4 15 19 15 41 0 32 -3 36 -47 52 -27 9 -63 23 -82 31
-18 7 -46 13 -62 13 -67 0 -99 41 -63 81 17 19 51 14 95 -14 30 -19 158 -59
169 -52 14 9 21 57 10 70 -6 8 -45 22 -87 31 -70 17 -75 17 -84 1 -11 -19 -27
-21 -63 -7 -23 8 -24 12 -15 40 6 16 15 32 20 35 5 3 59 -4 120 -15 61 -12
116 -17 120 -13 5 5 13 74 19 154 28 395 -65 720 -266 926 -105 107 -161 125
-250 77z m394 -716 c2 -12 -6 -20 -30 -26 -23 -6 -34 -15 -38 -33 -8 -35 -33
-30 -41 8 -7 36 -1 44 46 61 39 14 59 11 63 -10z m52 -118 c12 -22 10 -24 -49
-34 -19 -4 -43 -13 -52 -22 -27 -24 -49 -11 -49 30 0 34 1 35 48 39 26 2 57 4
69 5 13 1 27 -6 33 -18z m-86 -105 c11 -8 41 -15 67 -15 30 0 49 -5 52 -13 12
-31 -9 -38 -99 -35 -85 3 -89 4 -92 26 -2 13 -1 30 2 38 7 18 45 18 70 -1z
m-18 -109 c5 -20 14 -26 47 -31 93 -14 97 -15 97 -41 0 -13 -4 -24 -9 -24 -16
0 -205 40 -209 45 -2 2 -1 20 2 40 6 31 11 35 36 35 23 0 31 -5 36 -24z"/>
<path d="M3760 5156 c0 -3 20 -19 45 -37 39 -28 45 -37 40 -59 -5 -22 5 -34
90 -103 52 -43 101 -80 108 -83 17 -6 51 42 43 61 -5 15 -190 155 -204 155 -5
0 -31 16 -58 35 -45 33 -64 41 -64 31z"/>
<path d="M3690 5086 c0 -9 313 -277 317 -272 9 9 -7 25 -152 151 -126 109
-165 138 -165 121z"/>
<path d="M3661 4969 c102 -116 254 -269 267 -267 7 2 21 16 30 31 l17 28 -100
94 c-90 85 -103 94 -130 90 -26 -4 -37 1 -70 35 -56 57 -66 50 -14 -11z"/>
<path d="M3540 4955 c0 -4 20 -31 44 -60 34 -39 43 -57 39 -74 -5 -19 12 -41
98 -127 57 -57 109 -104 116 -104 7 0 20 12 30 26 l17 26 -112 107 c-148 141
-232 216 -232 206z"/>
<path d="M3290 4746 c0 -5 23 -34 50 -66 28 -32 50 -68 50 -80 0 -15 38 -63
111 -142 l112 -119 24 23 c13 12 22 28 21 34 -5 23 -220 244 -236 244 -9 0
-42 26 -74 57 -32 32 -58 54 -58 49z"/>
<path d="M3200 4683 c0 -5 25 -38 56 -72 51 -56 56 -65 46 -86 -10 -22 -3 -33
85 -132 52 -59 103 -116 111 -126 14 -15 14 -20 1 -32 -8 -8 -19 -11 -25 -7
-5 4 -81 88 -168 187 -202 229 -186 213 -186 195 0 -8 77 -100 170 -205 94
-104 169 -197 168 -205 -7 -37 -39 -14 -143 104 -96 109 -113 124 -134 119
-20 -5 -34 5 -87 63 -35 38 -63 63 -64 56 0 -7 20 -34 44 -60 24 -26 56 -67
71 -91 15 -25 73 -96 129 -159 89 -100 104 -113 129 -109 15 2 27 3 27 2 0 -1
20 -136 45 -299 25 -164 45 -302 45 -306 0 -5 -42 -29 -94 -55 -114 -56 -210
-139 -277 -242 -60 -93 -89 -176 -96 -283 -5 -72 -1 -100 20 -182 15 -53 41
-126 58 -163 35 -71 106 -145 139 -145 26 0 25 4 -4 43 -61 82 -71 114 -71
237 0 106 2 120 29 178 40 86 132 172 243 224 45 22 89 38 96 35 9 -3 19 -50
30 -138 33 -258 107 -805 123 -908 9 -57 17 -143 19 -190 3 -98 32 -280 47
-298 6 -7 14 -11 18 -8 13 8 27 -18 38 -70 10 -47 9 -51 -14 -73 -15 -14 -23
-30 -20 -40 3 -9 17 -84 32 -167 22 -123 27 -182 28 -330 1 -197 -9 -256 -59
-340 -64 -109 -219 -241 -330 -280 -77 -27 -249 -26 -340 2 -83 26 -145 66
-145 93 0 14 29 34 111 77 196 102 251 173 251 324 0 100 -32 218 -78 287 -77
116 -231 168 -375 126 -201 -59 -314 -251 -281 -479 15 -99 59 -236 98 -303
64 -108 193 -198 344 -239 89 -24 335 -24 434 0 242 60 443 258 513 507 25 90
25 454 -1 653 -9 75 -14 142 -11 147 4 6 -3 40 -16 77 -20 61 -20 67 -5 78 22
17 21 23 -20 123 -25 60 -37 105 -39 147 -2 45 -144 1002 -180 1213 l-6 32 54
0 c112 0 240 -58 345 -155 79 -73 129 -149 166 -255 30 -82 31 -90 31 -260 0
-142 -4 -186 -18 -235 -24 -77 -51 -130 -93 -182 -19 -23 -34 -45 -34 -50 0
-9 112 -121 178 -179 51 -44 69 -37 24 9 -27 27 -31 39 -26 64 5 27 0 35 -50
79 -54 48 -66 67 -47 79 5 3 57 -35 116 -85 58 -49 112 -90 118 -90 12 1 -53
62 -150 142 -88 73 -59 97 33 28 56 -42 73 -47 91 -29 9 9 20 6 43 -11 17 -12
34 -19 38 -15 4 3 -1 11 -12 17 -10 5 -28 21 -39 35 -12 14 -45 43 -74 64 -35
26 -50 44 -47 54 8 21 27 19 84 -10 27 -14 56 -25 65 -25 9 0 29 -7 45 -15 17
-9 30 -12 30 -7 0 5 -11 15 -25 22 -17 9 -25 22 -25 40 0 22 -8 31 -50 50 -27
13 -50 27 -50 32 0 21 36 19 98 -5 102 -40 102 -40 102 -29 0 5 -36 24 -80 42
-46 19 -80 38 -80 46 0 17 37 18 76 4 23 -9 31 -7 50 11 12 11 27 18 33 15 5
-4 12 -3 15 2 6 10 -76 52 -100 52 -9 0 -14 7 -12 18 2 12 15 18 42 20 21 2
49 10 62 19 l24 15 -23 18 c-12 10 -31 19 -42 21 -33 7 -23 32 21 54 42 20 42
20 26 45 -9 14 -22 28 -28 32 -8 6 -9 21 -2 55 19 99 -11 231 -87 383 -76 151
-193 268 -340 341 -119 58 -215 80 -379 85 -77 2 -141 5 -142 7 -2 2 -26 156
-54 343 -28 186 -53 356 -56 377 -4 28 -23 56 -71 110 -95 104 -303 310 -303
300z m675 -2884 c20 -60 47 -129 60 -152 13 -23 26 -58 30 -78 6 -34 5 -36
-36 -52 -23 -9 -45 -14 -49 -12 -12 7 -30 90 -30 137 0 24 -11 86 -25 138 -30
116 -31 130 -6 130 16 0 26 -21 56 -111z"/>
<path d="M2940 4473 c0 -5 27 -39 60 -76 51 -58 58 -71 50 -88 -12 -21 -15
-17 145 -197 44 -50 87 -91 96 -91 9 -1 24 8 34 19 21 23 31 9 -118 177 -60
67 -116 125 -125 128 -10 3 -42 34 -72 70 -50 60 -70 76 -70 58z"/>
<path d="M2866 4378 c111 -125 369 -398 376 -398 5 0 -14 27 -44 59 -253 283
-325 359 -337 360 -11 1 -9 -5 5 -21z"/>
<path d="M2768 4324 c-8 -7 14 -32 259 -297 l136 -148 25 25 25 25 -26 33
c-15 18 -73 82 -130 142 -95 99 -105 108 -125 97 -19 -10 -28 -5 -89 60 -38
39 -71 67 -75 63z"/>
<path d="M2680 4244 c0 -5 29 -39 65 -74 42 -41 65 -73 65 -87 0 -26 252 -278
277 -278 9 0 22 10 31 23 14 22 11 26 -119 158 -101 102 -139 134 -153 130
-14 -4 -40 15 -93 66 -40 39 -73 67 -73 62z"/>
<path d="M2596 4148 c3 -7 34 -38 69 -68 56 -48 64 -59 62 -87 -2 -30 9 -42
138 -157 144 -127 161 -136 180 -89 5 14 -20 43 -112 131 -65 62 -136 125
-158 140 -22 15 -69 53 -104 84 -62 56 -86 71 -75 46z"/>
<path d="M2521 4054 c18 -22 442 -380 446 -376 10 8 -16 31 -219 203 -201 171
-266 220 -227 173z"/>
<path d="M2430 3972 c0 -6 34 -36 75 -67 41 -31 79 -64 85 -74 5 -10 77 -69
161 -131 122 -92 154 -112 167 -103 38 23 19 49 -118 158 -74 60 -140 112
-147 117 -7 6 -19 4 -32 -3 -17 -12 -26 -8 -78 32 -78 62 -113 83 -113 71z"/>
<path d="M2356 3861 c5 -4 44 -32 87 -60 68 -46 76 -55 71 -76 -5 -22 6 -32
123 -107 204 -133 201 -132 218 -118 33 28 15 48 -139 154 -85 58 -160 106
-168 106 -7 0 -50 25 -95 55 -46 30 -88 55 -95 55 -7 0 -8 -3 -2 -9z"/>
<path d="M2280 3761 c0 -5 96 -65 213 -134 292 -171 327 -190 327 -179 0 9
-519 322 -534 322 -3 0 -6 -4 -6 -9z"/>
<path d="M2225 3640 c3 -5 34 -22 68 -37 34 -15 81 -42 104 -60 23 -18 118
-69 210 -113 154 -74 169 -79 180 -63 7 9 13 22 13 28 0 11 -114 78 -277 162
-66 35 -73 36 -98 23 -24 -13 -32 -11 -111 28 -89 44 -99 48 -89 32z"/>
<path d="M2160 3523 c0 -5 41 -24 92 -44 79 -30 98 -44 115 -77 0 -2 84 -35
185 -73 168 -64 184 -68 196 -52 25 34 24 35 -178 123 -122 53 -172 70 -193
66 -19 -4 -56 6 -114 29 -91 37 -103 40 -103 28z"/>
<path d="M2116 3391 c5 -5 50 -20 99 -34 83 -22 90 -26 93 -51 4 -34 10 -37
209 -86 196 -48 205 -49 201 -14 -3 25 -13 30 -168 81 -91 30 -185 55 -210 57
-25 2 -82 15 -128 30 -89 28 -112 32 -96 17z"/>
<path d="M2080 3261 c0 -6 1 -11 3 -11 2 0 137 -27 302 -60 261 -52 322 -62
304 -46 -2 2 -132 29 -289 60 -157 32 -293 60 -302 62 -10 3 -18 1 -18 -5z"/>
<path d="M2267 3069 c-5 -20 -10 -21 -94 -14 -48 4 -95 9 -105 11 -9 3 -19 0
-23 -5 -7 -13 17 -18 120 -27 44 -3 88 -10 97 -15 19 -10 293 -39 371 -39 34
0 49 4 54 16 12 31 -22 43 -201 68 -215 31 -212 31 -219 5z"/>
<path d="M2160 2933 c-143 -5 -156 -23 -17 -23 105 0 108 0 117 -25 l10 -25
132 1 c73 1 165 4 203 8 66 6 70 7 70 31 0 22 -5 26 -45 32 -45 6 -268 7 -470
1z"/>
<path d="M2303 2811 c-267 -18 -347 -37 -108 -27 178 9 486 34 493 41 8 8
-126 3 -385 -14z"/>
<path d="M2438 2760 c-161 -21 -168 -23 -168 -49 0 -22 -1 -23 -120 -43 -41
-6 -65 -14 -52 -16 12 -2 53 1 91 7 38 6 82 9 98 6 15 -3 111 10 213 28 l185
32 3 28 c3 27 3 27 -55 26 -32 -1 -120 -9 -195 -19z"/>
<path d="M2496 2649 c-131 -28 -186 -45 -202 -60 -13 -12 -55 -28 -104 -39
-45 -10 -84 -21 -87 -24 -11 -11 35 -6 113 11 60 13 80 14 95 5 16 -10 48 -6
172 23 234 55 227 53 227 78 0 22 -17 48 -29 46 -4 -1 -87 -19 -185 -40z"/>
<path d="M2530 2531 c-96 -26 -189 -55 -206 -64 -16 -8 -65 -25 -108 -35 -43
-11 -80 -23 -84 -26 -11 -12 32 -6 110 16 l78 21 20 -21 c19 -20 22 -20 72 -6
199 58 313 95 321 103 11 11 -6 62 -20 60 -5 -1 -87 -22 -183 -48z"/>
<path d="M2675 2453 c-22 -8 -143 -48 -269 -89 -126 -40 -231 -76 -234 -79
-22 -21 41 -4 284 80 153 53 280 98 283 100 9 10 -25 3 -64 -12z"/>
<path d="M2580 2361 c-187 -76 -193 -78 -187 -95 9 -22 -7 -34 -83 -67 -77
-32 -98 -45 -88 -54 3 -3 42 10 87 30 46 19 91 35 101 35 10 0 98 37 195 82
166 77 176 83 173 107 -2 14 -10 27 -18 28 -8 0 -89 -29 -180 -66z"/>
<path d="M2635 2248 c-88 -50 -169 -100 -180 -112 -11 -12 -55 -41 -97 -64
-43 -23 -78 -47 -78 -52 0 -18 18 -11 93 35 81 49 88 51 116 33 16 -9 40 4
171 93 84 57 155 110 158 117 2 8 -2 20 -9 27 -12 12 -39 0 -174 -77z"/>
<path d="M2788 2232 c-18 -16 -117 -95 -220 -176 -173 -136 -205 -166 -178
-166 10 0 425 343 435 360 11 18 -4 10 -37 -18z"/>
<path d="M2722 2110 c-125 -122 -133 -132 -127 -160 6 -27 0 -37 -51 -90 -31
-33 -54 -63 -50 -67 4 -4 35 23 69 60 35 37 68 67 74 67 5 0 67 63 137 141
123 136 127 141 110 160 -9 10 -20 19 -23 19 -3 0 -66 -59 -139 -130z"/>
<path d="M2803 2030 c-79 -97 -113 -147 -113 -165 0 -16 -20 -52 -51 -93 -30
-39 -45 -68 -38 -71 6 -2 14 1 18 6 42 63 104 131 118 129 22 -1 224 281 221
309 -2 11 -12 21 -23 22 -15 2 -49 -33 -132 -137z"/>
<path d="M2956 2058 c-92 -145 -156 -253 -156 -266 0 -8 -20 -48 -45 -88 -24
-40 -40 -76 -36 -79 5 -3 24 21 41 52 44 80 58 94 85 87 24 -6 22 -9 176 285
14 26 16 38 7 48 -19 24 -38 14 -72 -39z"/>
<path d="M3031 1995 c-17 -39 -69 -151 -115 -250 -73 -158 -94 -217 -66 -188
15 14 220 487 217 497 -2 6 -18 -21 -36 -59z"/>
<path d="M3043 1878 c-54 -142 -60 -165 -47 -179 19 -22 18 -38 -10 -114 -14
-35 -21 -67 -16 -70 11 -7 13 -3 40 80 13 39 32 81 42 95 10 14 41 93 68 175
51 156 52 175 6 175 -18 0 -30 -22 -83 -162z"/>
<path d="M4102 2018 c-7 -7 -12 -16 -12 -21 0 -21 124 -177 140 -177 10 0 32
-17 49 -37 39 -47 53 -36 16 12 -15 20 -28 49 -29 64 -2 33 -112 171 -136 171
-9 0 -21 -5 -28 -12z"/>
<path d="M3210 1978 c-21 -51 -90 -309 -85 -318 3 -6 -3 -43 -14 -83 -25 -86
-27 -128 -6 -82 8 17 22 56 30 88 13 43 21 57 35 57 10 0 22 5 26 12 4 7 24
81 45 166 32 133 35 155 22 168 -21 21 -42 17 -53 -8z"/>
<path d="M4001 1966 c-10 -11 -1 -34 41 -113 49 -88 57 -98 81 -96 21 1 31 -7
54 -43 15 -24 32 -44 36 -44 5 0 7 3 5 8 -32 72 -90 181 -124 235 -44 68 -69
82 -93 53z"/>
<path d="M3365 1938 c-2 -7 -15 -79 -28 -159 l-23 -147 21 -19 c20 -17 21 -23
12 -96 -8 -69 -6 -99 7 -86 3 2 9 42 15 87 6 45 15 90 20 100 12 22 44 309 36
322 -9 14 -55 12 -60 -2z"/>
<path d="M3940 1941 c0 -12 150 -333 161 -345 29 -32 9 23 -65 178 -77 160
-96 193 -96 167z"/>
<path d="M3311 1938 c-1 -4 -24 -113 -51 -244 -47 -220 -52 -262 -32 -238 12
13 95 461 89 476 -3 7 -6 10 -6 6z"/>
<path d="M3466 1888 c-15 -110 -19 -268 -6 -283 8 -10 11 -40 9 -91 -3 -56 0
-78 9 -81 9 -4 12 15 12 70 0 60 4 78 20 97 18 21 20 37 20 177 l0 153 -29 0
c-26 0 -29 -4 -35 -42z"/>
<path d="M3575 1911 c-8 -14 16 -455 26 -465 5 -6 9 20 9 64 0 67 2 76 25 95
l25 20 -10 139 c-6 77 -13 143 -16 148 -7 11 -51 10 -59 -1z"/>
<path d="M3680 1880 c0 -57 43 -406 51 -414 5 -6 9 2 9 20 0 57 -43 399 -51
409 -5 5 -9 -1 -9 -15z"/>
</g>
</svg>
